# xmcd
#
# Track frame offsets: 
#        150
#        13526
#        26036
#        41093
#        52475
#        69730
#        96131
#        113674
#        127599
#        145076
#        157325
#        176520
#        195548
#        212950
#
# Disc length: 3066 seconds
#
# Revision: 1
# Processed by: cddbd v1.5PL3 Copyright (c) Steve Scherf et al.
# Submitted via: ExactAudioCopy v0.90b4
#
DISCID=cb0bf80e
DTITLE=Keith Urban - In The Ranch
DYEAR=2004
DGENRE=Country
TTITLE0=Walkin' The Country
TTITLE1=Homespun Love
TTITLE2=Just Some Love
TTITLE3=Some Days You Gotta Dance
TTITLE4=My Last Name
TTITLE5=Desiree
TTITLE6=Freedom's Finally Mine
TTITLE7=Hank Don't Fail Me Now
TTITLE8=Tangled Up In Love
TTITLE9=Clutterbilly
TTITLE10=Man Of Yhe House
TTITLE11=Ghost In The Guitar
TTITLE12=Stuck In The Middle (Encore)
TTITLE13=Billy (Encore)
EXTD=
EXTT0=
EXTT1=
EXTT2=
EXTT3=
EXTT4=
EXTT5=
EXTT6=
EXTT7=
EXTT8=
EXTT9=
EXTT10=
EXTT11=
EXTT12=
EXTT13=
PLAYORDER=
